<svg xmlns="http://www.w3.org/2000/svg" viewBox="0 0 162.5 47.17"><defs><style>.cls-1{fill:#1e1e1e;}</style></defs><title>Ativo 8</title><g id="Camada_2" data-name="Camada 2"><g id="Camada_1-2" data-name="Camada 1"><path class="cls-1" d="M0,40.58,5.1,34.8a7.8,7.8,0,0,0,3.1,3.74A8.76,8.76,0,0,0,13,39.9a7.89,7.89,0,0,0,5.1-1.52A5,5,0,0,0,20,34.28q0-3-6.24-6.07c-1.35-.64-2.41-1.17-3.19-1.58q-5.63-2.93-7.8-5.73A10.56,10.56,0,0,1,.59,14.24a10.75,10.75,0,0,1,4.2-8.72Q9,2.12,15.7,2.11a15.36,15.36,0,0,1,6.73,1.36,13.7,13.7,0,0,1,5,4.26L22,12.92a6.66,6.66,0,0,0-2.56-2.8,7.64,7.64,0,0,0-3.85-.92,6.73,6.73,0,0,0-4.4,1.36,4.36,4.36,0,0,0-1.67,3.53q0,3.4,6.62,6.21c.88.37,1.56.67,2,.88a22.61,22.61,0,0,1,8.08,5.63A10.87,10.87,0,0,1,28.86,34a12.13,12.13,0,0,1-4.12,9.62q-4.11,3.59-11.06,3.59a19.31,19.31,0,0,1-8.44-1.7A11.38,11.38,0,0,1,0,40.58Z"/><path class="cls-1" d="M53.81,45.18a13.48,13.48,0,0,1-3.58,1.5,16.06,16.06,0,0,1-4.1.49,14.89,14.89,0,0,1-11.07-4.32,15.26,15.26,0,0,1-4.28-11.24,14.81,14.81,0,0,1,4.31-11,15.19,15.19,0,0,1,11.16-4.26,17.12,17.12,0,0,1,4.1.44,13.36,13.36,0,0,1,3.46,1.37l-.06,8.38A9.3,9.3,0,0,0,47,23.7a7.56,7.56,0,0,0-5.63,2.15,7.83,7.83,0,0,0-2.11,5.7,7.43,7.43,0,0,0,8,7.94,8.34,8.34,0,0,0,3.59-.73,8.53,8.53,0,0,0,2.89-2.29Z"/><path class="cls-1" d="M85.9,46H77.82l.12-4.14a11,11,0,0,1-4.09,4A12.21,12.21,0,0,1,68,47.17a11.35,11.35,0,0,1-9.21-4.25q-3.49-4.24-3.5-11.22,0-7.26,3.44-11.32c2.3-2.71,5.48-4.06,9.57-4.06a10.86,10.86,0,0,1,5.61,1.43A11.55,11.55,0,0,1,78,22V17.29H85.9ZM78.29,31.61a9,9,0,0,0-2-6.12,6.58,6.58,0,0,0-5.26-2.26,6.73,6.73,0,0,0-5.35,2.24,9,9,0,0,0-1.94,6.14,8.86,8.86,0,0,0,1.91,6.07A6.76,6.76,0,0,0,71,39.84a6.76,6.76,0,0,0,5.36-2.16A8.91,8.91,0,0,0,78.29,31.61Z"/><path class="cls-1" d="M91.78,46V23.82H88.06V17.29h3.72V10.81q0-5.8,2.67-8.31T103.24,0a10.43,10.43,0,0,1,1.56.13c.6.09,1.38.25,2.33.49V7.27a6.27,6.27,0,0,0-1.46-.6,5.49,5.49,0,0,0-1.47-.2,3.81,3.81,0,0,0-3.13,1.16,6.45,6.45,0,0,0-.94,4v5.66h5.33v6.53h-5.33V46Z"/><path class="cls-1" d="M135.69,33.72h-21.6a7.54,7.54,0,0,0,2.26,4.64,7,7,0,0,0,4.78,1.54,8.27,8.27,0,0,0,3.94-.88,7.23,7.23,0,0,0,2.76-2.66l6.74,3.37a15.46,15.46,0,0,1-5.68,5.61A16.29,16.29,0,0,1,121,47.17q-7,0-11-4.16t-4.07-11.19a15.28,15.28,0,0,1,4.26-11.14A14.61,14.61,0,0,1,121,16.32q6.85,0,10.84,4.09t4,11.14c0,.26,0,.53,0,.84S135.74,33.13,135.69,33.72Zm-8.27-5a6.2,6.2,0,0,0-2-4.11,6.62,6.62,0,0,0-4.44-1.4,6.82,6.82,0,0,0-4.5,1.4,6.53,6.53,0,0,0-2.15,4.11Z"/><path class="cls-1" d="M139.34,46V.62h8.32V46Z"/><path class="cls-1" d="M152.71,5.48a4.68,4.68,0,0,1,1.44-3.43A4.67,4.67,0,0,1,157.58.62,4.79,4.79,0,0,1,161.05,2a4.61,4.61,0,0,1,1.45,3.44,4.68,4.68,0,0,1-1.45,3.46,4.8,4.8,0,0,1-3.47,1.43,4.66,4.66,0,0,1-3.43-1.46A4.74,4.74,0,0,1,152.71,5.48ZM153.45,46V17.29h8.32V46Z"/></g></g></svg>