<svg height="512pt" viewBox="-28 0 512 512" width="512pt" xmlns="http://www.w3.org/2000/svg"><path d="m449.023438 383.5c-32.398438 56.101562-141.597657 25.800781-220.800782-9.902344-20.097656-9-38.101562-18.296875-52.5-26.699218-49.796875-28.800782-92.699218-61.800782-124.796875-96l22.199219-20.398438c29.398438 31.5 71.097656 63.601562 117.597656 90.597656 12.601563 7.203125 25.203125 13.800782 37.5 19.800782 96.300782 47.101562 179.101563 54.601562 195 27.601562 27.300782-47.703125-102.898437-145.800781-157.5-177.601562-12.597656-7.199219-25.199218-13.800782-37.5-19.800782-96.300781-47.097656-179.398437-54.597656-195-27.597656-5.097656 9.300781-3 24 6.601563 42l-26.699219 14.101562c-18.300781-35.101562-13.1992188-58.203124-5.699219-71.101562 28.796875-49.800781 126.597657-33.601562 220.796875 9.601562 17.703125 8.097657 35.402344 17.097657 52.5 26.996094 71.402344 41.101563 209.101563 147.601563 168.300782 218.402344zm0 0" fill="#ff637b"/><path d="m449.023438 383.5c-32.398438 56.101562-141.597657 25.800781-220.800782-9.902344v-32.699218c96.300782 47.101562 179.101563 54.601562 195 27.601562 27.300782-47.703125-102.898437-145.800781-157.5-177.601562-12.597656-7.199219-25.199218-13.800782-37.5-19.800782v-32.996094c17.703125 8.097657 35.402344 17.097657 52.5 26.996094 71.402344 41.101563 209.101563 147.601563 168.300782 218.402344zm0 0" fill="#e63950"/><path d="m22.726562 256.9375h-.03125c-21.472656-12.421875-28.855468-40.003906-16.449218-61.476562 12.464844-21.585938 39.96875-28.871094 61.480468-16.46875 21.511719 12.441406 28.890626 39.914062 16.464844 61.46875-12.398437 21.4375-39.957031 28.882812-61.464844 16.476562zm0 0" fill="#ff637b"/><path d="m283.722656 403.300781c12.601563-41.398437 19.5-93.601562 19.5-147.300781 0-128.699219-39.597656-226-75-226-35.398437 0-75 97.300781-75 226s39.601563 226 75 226c10.5 0 22.5-9.300781 33.300782-26.398438l25.199218 15.898438c-21 33.601562-43.5 40.5-58.5 40.5-68.101562 0-105-132.398438-105-256s36.898438-256 105-256c68.101563 0 105 132.398438 105 256 0 57.300781-7.199218 111.300781-21 156zm0 0" fill="#97e9d7"/><g fill="#6cb"><path d="m261.523438 455.601562 25.199218 15.898438c-21 33.601562-43.5 40.5-58.5 40.5v-30c10.5 0 22.5-9.300781 33.300782-26.398438zm0 0"/><path d="m333.222656 256c0 57.300781-7.199218 111.300781-21 156l-28.5-8.699219c12.601563-41.398437 19.5-93.601562 19.5-147.300781 0-128.699219-39.597656-226-75-226v-30c68.101563 0 105 132.398438 105 256zm0 0"/><path d="m288.222656 482c-24.8125 0-45-21.1875-45-46s20.1875-45 45-45c24.816406 0 45 20.1875 45 45s-20.183594 46-45 46zm0 0"/></g><path d="m280.722656 346.902344c-14.398437 8.398437-32.699218 17.699218-52.5 26.699218-79.5 35.699219-188.699218 65.699219-220.800781 9.898438-40.796875-70.496094 96.601563-177 168.300781-218.398438 17.703125-10.199218 35.101563-19.199218 52.5-27.300781 32.101563-14.699219 63.601563-25.800781 93-32.699219l6.902344 29.398438c-30.902344 6.898438-65.402344 19.800781-99.902344 36.597656-12.597656 6-25.199218 12.601563-37.5 19.800782-58.5 33.902343-183.898437 131.699218-157.5 177.601562 15.902344 27 98.699219 19.5 195-27.597656 12.300782-6 24.902344-12.601563 37.5-19.800782 58.5-33.902343 183.902344-131.699218 157.5-177.601562-5.398437-9.300781-19.5-14.699219-39.597656-15.601562l1.199219-30c39.300781 1.800781 56.699219 17.703124 64.199219 30.601562 40.800781 70.5-96.601563 177-168.300782 218.402344zm0 0" fill="#ffd396"/><path d="m328.125 134.5c-30.902344 6.898438-65.402344 19.800781-99.902344 36.597656v-33.296875c32.101563-14.703125 63.601563-25.800781 93-32.703125zm0 0" fill="#ffb64c"/><path d="m280.722656 346.902344c-14.398437 8.398437-32.699218 17.699218-52.5 26.699218v-32.699218c12.300782-6 24.902344-12.601563 37.5-19.800782 58.5-33.902343 183.902344-131.699218 157.5-177.601562-5.398437-9.300781-19.5-14.699219-39.597656-15.601562l1.199219-30c39.300781 1.800781 56.699219 17.703124 64.199219 30.601562 40.800781 70.5-96.601563 177-168.300782 218.402344zm0 0" fill="#ffb64c"/><path d="m315.132812 136.558594c-12.394531-21.519532-4.996093-49.089844 16.476563-61.496094 21.488281-12.390625 49.011719-5.101562 61.46875 16.496094 12.390625 21.429687 5.140625 48.96875-16.46875 61.449218-21.488281 12.394532-49.046875 5.023438-61.476563-16.449218zm0 0" fill="#ffb64c"/><path d="m273.222656 256c0 24.902344-20.097656 45-45 45-24.898437 0-45-20.097656-45-45s20.101563-45 45-45c24.902344 0 45 20.097656 45 45zm0 0" fill="#725d57"/><path d="m228.222656 301v-90c24.902344 0 45 20.097656 45 45s-20.097656 45-45 45zm0 0" fill="#53433f"/></svg>