<svg id="Capa_1" enable-background="new 0 0 512 512" height="512" viewBox="0 0 512 512" width="512" xmlns="http://www.w3.org/2000/svg"><g><g><path d="m332.957 229.445c-72.7 2.856-145.391 2.856-218.092 0-3.054-9.901-4.937-19.801-5.657-29.702-1.18-16.063.712-32.125 5.657-48.188 60.34-2.369 120.672-2.775 181.012-1.207 12.36.324 24.72.721 37.08 1.207 8 25.964 8 51.927 0 77.89z" fill="#f1d333"/><path d="m332.957 229.445c-72.7 2.856-145.391 2.856-218.092 0-3.054-9.901-4.937-19.801-5.657-29.702 45.26 2.865 130.194 6.919 157.841-.856 22.234-6.252 27.945-29.828 28.828-48.539 12.36.324 24.72.721 37.08 1.207 8 25.964 8 51.927 0 77.89z" fill="#e7a52e"/><path d="m103.259 85.936c-23.397-2.178-46.793-2.178-70.19 0-17.03 1.585-30.381 15.396-31.245 32.478-2.43 48.055-2.43 96.109 0 144.164.864 17.082 14.215 30.893 31.245 32.478 23.397 2.178 46.793 2.178 70.19 0 17.03-1.585 30.381-15.396 31.245-32.478 2.43-48.055 2.43-96.11 0-144.164-.864-17.082-14.215-30.892-31.245-32.478z" fill="#f1d333"/><path d="m134.29 264.986c-1.919 15.954-14.81 28.558-31.035 30.071-23.396 2.18-46.791 2.18-70.187 0-17.035-1.586-30.386-15.396-31.251-32.476-2.423-48.053-2.423-96.114 0-144.166.847-16.72 13.648-30.305 30.17-32.35-.099.793-.162 1.586-.207 2.396-2.432 48.052-2.432 96.105 0 144.166.865 17.08 14.216 30.891 31.242 32.476 23.396 2.171 46.791 2.171 70.196 0 .361-.036.721-.072 1.072-.117z" fill="#e7a52e"/><path d="m414.756 85.936c-23.397-2.178-46.793-2.178-70.19 0-17.03 1.585-30.381 15.396-31.245 32.478-2.43 48.055-2.43 96.109 0 144.164.864 17.082 14.215 30.893 31.245 32.478 23.397 2.178 46.793 2.178 70.19 0 17.03-1.585 30.381-15.396 31.245-32.478 2.43-48.055 2.43-96.11 0-144.164-.864-17.082-14.215-30.892-31.245-32.478z" fill="#f1d333"/><path d="m445.788 264.986c-1.919 15.954-14.81 28.558-31.035 30.071-23.396 2.18-46.791 2.18-70.187 0-17.035-1.586-30.386-15.396-31.251-32.476-2.423-48.053-2.423-96.114 0-144.166.847-16.72 13.648-30.305 30.17-32.35-.099.793-.162 1.586-.207 2.396-2.432 48.052-2.432 96.105 0 144.166.865 17.08 14.216 30.891 31.242 32.476 23.396 2.171 46.791 2.171 70.196 0 .36-.036.72-.072 1.072-.117z" fill="#e7a52e"/></g><path d="m397.134 360.451c-72.7 2.856-145.391 2.856-218.092 0-3.054-9.901-4.937-19.801-5.657-29.702-1.18-16.063.712-32.125 5.657-48.188 60.34-2.369 120.672-2.775 181.012-1.207 12.36.324 24.72.721 37.08 1.207 8 25.963 8 51.926 0 77.89z" fill="#b97ab7"/><path d="m397.134 360.451c-72.7 2.856-145.391 2.856-218.092 0-3.054-9.901-4.937-19.801-5.657-29.702 45.26 2.865 130.194 6.919 157.841-.856 22.234-6.252 27.945-29.828 28.828-48.539 12.36.324 24.72.721 37.08 1.207 8 25.963 8 51.926 0 77.89z" fill="#845caf"/><path d="m167.435 216.941c-23.397-2.178-46.793-2.178-70.19 0-17.03 1.586-30.381 15.397-31.245 32.479-2.43 48.055-2.43 96.109 0 144.164.864 17.082 14.215 30.893 31.245 32.478 23.397 2.178 46.793 2.178 70.19 0 17.03-1.585 30.381-15.396 31.245-32.478 2.43-48.055 2.43-96.11 0-144.164-.863-17.082-14.214-30.893-31.245-32.479z" fill="#b97ab7"/><path d="m198.467 395.991c-1.919 15.954-14.81 28.558-31.035 30.071-23.396 2.18-46.791 2.18-70.187 0-17.035-1.586-30.386-15.396-31.251-32.476-2.423-48.052-2.423-96.114 0-144.166.847-16.72 13.648-30.305 30.17-32.35-.099.793-.162 1.586-.207 2.396-2.432 48.052-2.432 96.105 0 144.166.865 17.08 14.216 30.891 31.242 32.476 23.396 2.171 46.791 2.171 70.196 0 .36-.036.721-.072 1.072-.117z" fill="#845caf"/><path d="m478.933 216.941c-23.397-2.178-46.793-2.178-70.19 0-17.03 1.585-30.381 15.396-31.245 32.478-2.43 48.055-2.43 96.109 0 144.164.864 17.082 14.215 30.893 31.245 32.478 23.397 2.178 46.793 2.178 70.19 0 17.03-1.585 30.381-15.396 31.245-32.478 2.43-48.055 2.43-96.11 0-144.164-.864-17.081-14.215-30.892-31.245-32.478z" fill="#b97ab7"/><path d="m509.964 395.991c-1.919 15.954-14.81 28.558-31.035 30.071-23.396 2.18-46.791 2.18-70.187 0-17.035-1.586-30.386-15.396-31.251-32.476-2.423-48.052-2.423-96.114 0-144.166.847-16.72 13.648-30.305 30.17-32.35-.099.793-.162 1.586-.207 2.396-2.432 48.052-2.432 96.105 0 144.166.865 17.08 14.216 30.891 31.242 32.476 23.396 2.171 46.791 2.171 70.196 0 .361-.036.721-.072 1.072-.117z" fill="#845caf"/></g></svg>