<svg xmlns="http://www.w3.org/2000/svg" viewBox="0 0 516.41 70.39"><defs><style>.cls-1{fill:none;stroke:#fff;stroke-miterlimit:10;stroke-width:2px;}.cls-2{fill:#fff;}</style></defs><title>Ativo 20</title><g id="Camada_2" data-name="Camada 2"><g id="Camada_1-2" data-name="Camada 1"><circle class="cls-1" cx="506.8" cy="9.61" r="8.61"/><path class="cls-2" d="M505.26,15.16l-.16-1.63a5.74,5.74,0,0,0,3.52-.69c1.4-.8,1.7-1.63,1.32-2.3-1.1-1.93-5.7,2.37-7.6-1-.82-1.45-.37-3.34,2.09-4.73a6.47,6.47,0,0,1,3.44-.91l.21,1.6a5.6,5.6,0,0,0-2.87.7c-1.39.78-1.64,1.64-1.26,2.32,1.09,1.91,5.7-2.36,7.57.94.81,1.43.35,3.32-2.11,4.72A6.74,6.74,0,0,1,505.26,15.16Z"/><path class="cls-2" d="M19.8,47.54C19.8,52.4,24,55,41.67,55c15.39,0,19-1.44,19-5,0-4-2.79-4.59-20.43-5.31C12.33,43.58,1.44,39.08,1.44,24.59c0-13.86,13.86-19,38.07-19s38.25,5.94,38.25,21.78H58C58,22.25,51.84,21,37.71,21c-13.41,0-16.47,1.08-16.47,4.59,0,3.69,3.06,4.14,19,4.86,24.84,1.17,40.23,2.7,40.23,19,0,17.1-15.12,21-39.69,21C14.94,70.39,0,66,0,47.54Z"/><path class="cls-2" d="M124.74,5.6c25.2,0,38.07,9.18,39.33,28.17H143.91c-1.17-8-7.47-11.43-19.17-11.43-15.12,0-19.8,5.85-19.8,15.57s4.77,15.75,19.8,15.75c11.7,0,18-3.51,19.17-11.61h20.16c-1.26,19.08-14.13,28.34-39.33,28.34-27.72,0-39.6-11.06-39.6-32.48S97,5.6,124.74,5.6Z"/><path class="cls-2" d="M220.59,57.17H188.1l-5.4,12.32H160.83l29.34-63h28.35l29.25,63H226ZM214.29,43l-9.9-22.59L194.4,43Z"/><path class="cls-2" d="M272.7,23.24V34.58h41.4V51.32H272.7V69.49H252.9V6.5h66.6V23.24Z"/><path class="cls-2" d="M345.51,21.89v9.36h46.8v13.5h-46.8v9.36h46.8V69.49h-66.6V6.5h66.6V21.89Z"/><path class="cls-2" d="M463.59,52.76V69.49h-64.8V6.5h19.8V52.76Z"/><path class="cls-2" d="M490.14,69.49h-19.8V6.5h19.8Z"/></g></g></svg>