<svg xmlns="http://www.w3.org/2000/svg" viewBox="0 0 447 360"><defs><style>.cls-1{fill:#fff;}</style></defs><title>Ativo 2</title><g id="Camada_2" data-name="Camada 2"><g id="Camada_1-2" data-name="Camada 1"><path class="cls-1" d="M110,233c0,27,23.5,41.5,121.5,41.5,85.5,0,105.5-8,105.5-28C337,224,321.5,221,223.5,217,68.5,211,8,186,8,105.5,8,28.5,85,0,219.5,0S432,33,432,121H322c0-28.5-34-35.5-112.5-35.5-74.5,0-91.5,6-91.5,25.5,0,20.5,17,23,105.5,27,138,6.5,223.5,15,223.5,105.5,0,95-84,116.5-220.5,116.5C83,360,0,335.5,0,233Z"/></g></g></svg>